<svg xmlns="http://www.w3.org/2000/svg" width="375" height="275"><path d="M207,132L239,102L209,96Z" fill="#51b3c1" stroke="#51b3c1" stroke-width="1.51"/><path d="M207,132L245,133L239,102Z" fill="#45adc1" stroke="#45adc1" stroke-width="1.51"/><path d="M246,67L207,67L209,96Z" fill="#6ababe" stroke="#6ababe" stroke-width="1.51"/><path d="M209,96L170,104L207,132Z" fill="#55b9c2" stroke="#55b9c2" stroke-width="1.51"/><path d="M174,61L170,104L209,96Z" fill="#67c2c0" stroke="#67c2c0" stroke-width="1.51"/><path d="M239,102L246,67L209,96Z" fill="#5eb4be" stroke="#5eb4be" stroke-width="1.51"/><path d="M276,99L246,67L239,102Z" fill="#5aacbe" stroke="#5aacbe" stroke-width="1.51"/><path d="M207,132L237,175L245,133Z" fill="#35a6c2" stroke="#35a6c2" stroke-width="1.51"/><path d="M170,104L171,138L207,132Z" fill="#4fbac3" stroke="#4fbac3" stroke-width="1.51"/><path d="M171,138L200,168L207,132Z" fill="#3eb1c4" stroke="#3eb1c4" stroke-width="1.51"/><path d="M245,133L276,99L239,102Z" fill="#4ba8bf" stroke="#4ba8bf" stroke-width="1.51"/><path d="M245,133L276,135L276,99Z" fill="#42a1be" stroke="#42a1be" stroke-width="1.51"/><path d="M278,170L276,135L245,133Z" fill="#329abf" stroke="#329abf" stroke-width="1.51"/><path d="M200,168L237,175L207,132Z" fill="#35a6c2" stroke="#35a6c2" stroke-width="1.51"/><path d="M207,67L174,61L209,96Z" fill="#70c2be" stroke="#70c2be" stroke-width="1.51"/><path d="M204,29L174,61L207,67Z" fill="#83c9be" stroke="#83c9be" stroke-width="1.51"/><path d="M237,175L278,170L245,133Z" fill="#2b9ac1" stroke="#2b9ac1" stroke-width="1.51"/><path d="M311,66L280,61L276,99Z" fill="#67a1b6" stroke="#67a1b6" stroke-width="1.51"/><path d="M240,25L204,29L207,67Z" fill="#8ac6bc" stroke="#8ac6bc" stroke-width="1.51"/><path d="M276,99L280,61L246,67Z" fill="#67aaba" stroke="#67aaba" stroke-width="1.51"/><path d="M318,105L276,99L276,135Z" fill="#4a98b9" stroke="#4a98b9" stroke-width="1.51"/><path d="M171,138L167,176L200,168Z" fill="#41afc3" stroke="#41afc3" stroke-width="1.51"/><path d="M200,168L203,207L237,175Z" fill="#2d9dc1" stroke="#2d9dc1" stroke-width="1.51"/><path d="M137,138L167,176L171,138Z" fill="#50b6c2" stroke="#50b6c2" stroke-width="1.51"/><path d="M170,104L137,138L171,138Z" fill="#5abdc1" stroke="#5abdc1" stroke-width="1.51"/><path d="M133,96L137,138L170,104Z" fill="#69c3bf" stroke="#69c3bf" stroke-width="1.51"/><path d="M240,25L207,67L246,67Z" fill="#7ebebc" stroke="#7ebebc" stroke-width="1.51"/><path d="M174,61L133,96L170,104Z" fill="#72c7be" stroke="#72c7be" stroke-width="1.51"/><path d="M129,64L133,96L174,61Z" fill="#83cdbc" stroke="#83cdbc" stroke-width="1.51"/><path d="M277,33L240,25L246,67Z" fill="#84b9bb" stroke="#84b9bb" stroke-width="1.51"/><path d="M167,176L203,207L200,168Z" fill="#33a4c2" stroke="#33a4c2" stroke-width="1.51"/><path d="M237,175L281,210L278,170Z" fill="#208cbd" stroke="#208cbd" stroke-width="1.51"/><path d="M318,134L318,105L276,135Z" fill="#4290b7" stroke="#4290b7" stroke-width="1.51"/><path d="M203,207L238,211L237,175Z" fill="#2992bf" stroke="#2992bf" stroke-width="1.51"/><path d="M278,170L318,134L276,135Z" fill="#338fba" stroke="#338fba" stroke-width="1.51"/><path d="M309,177L318,134L278,170Z" fill="#2f86b8" stroke="#2f86b8" stroke-width="1.51"/><path d="M280,61L277,33L246,67Z" fill="#7ab0b9" stroke="#7ab0b9" stroke-width="1.51"/><path d="M311,66L277,33L280,61Z" fill="#79a6b5" stroke="#79a6b5" stroke-width="1.51"/><path d="M318,105L311,66L276,99Z" fill="#5a98b5" stroke="#5a98b5" stroke-width="1.51"/><path d="M204,29L168,26L174,61Z" fill="#91d0bc" stroke="#91d0bc" stroke-width="1.51"/><path d="M174,-10L168,26L204,29Z" fill="#9cd4bc" stroke="#9cd4bc" stroke-width="1.51"/><path d="M167,176L174,214L203,207Z" fill="#399ebf" stroke="#399ebf" stroke-width="1.51"/><path d="M137,138L132,168L167,176Z" fill="#55b5c0" stroke="#55b5c0" stroke-width="1.51"/><path d="M92,134L132,168L137,138Z" fill="#66bfbf" stroke="#66bfbf" stroke-width="1.51"/><path d="M133,26L129,64L174,61Z" fill="#95d3ba" stroke="#95d3ba" stroke-width="1.51"/><path d="M133,96L99,104L137,138Z" fill="#73c7be" stroke="#73c7be" stroke-width="1.51"/><path d="M281,210L309,177L278,170Z" fill="#2381b9" stroke="#2381b9" stroke-width="1.51"/><path d="M203,207L208,247L238,211Z" fill="#2e89b9" stroke="#2e89b9" stroke-width="1.51"/><path d="M134,212L174,214L167,176Z" fill="#48a1bd" stroke="#48a1bd" stroke-width="1.51"/><path d="M238,211L281,210L237,175Z" fill="#1f8abd" stroke="#1f8abd" stroke-width="1.51"/><path d="M273,241L281,210L238,211Z" fill="#237ab6" stroke="#237ab6" stroke-width="1.51"/><path d="M240,25L208,-9L204,29Z" fill="#96c9bc" stroke="#96c9bc" stroke-width="1.51"/><path d="M276,-5L246,-5L240,25Z" fill="#96bfba" stroke="#96bfba" stroke-width="1.51"/><path d="M276,-5L240,25L277,33Z" fill="#8fb9b9" stroke="#8fb9b9" stroke-width="1.51"/><path d="M98,64L99,104L133,96Z" fill="#88d0bb" stroke="#88d0bb" stroke-width="1.51"/><path d="M246,-5L208,-9L240,25Z" fill="#99c6bb" stroke="#99c6bb" stroke-width="1.51"/><path d="M129,64L98,64L133,96Z" fill="#8dd1ba" stroke="#8dd1ba" stroke-width="1.51"/><path d="M168,26L133,26L174,61Z" fill="#9ad5ba" stroke="#9ad5ba" stroke-width="1.51"/><path d="M136,-3L133,26L168,26Z" fill="#a8dab9" stroke="#a8dab9" stroke-width="1.51"/><path d="M318,105L347,96L311,66Z" fill="#5b8fb1" stroke="#5b8fb1" stroke-width="1.51"/><path d="M311,66L316,27L277,33Z" fill="#82a5b3" stroke="#82a5b3" stroke-width="1.51"/><path d="M347,138L347,96L318,105Z" fill="#4d86b1" stroke="#4d86b1" stroke-width="1.51"/><path d="M347,138L318,105L318,134Z" fill="#4387b4" stroke="#4387b4" stroke-width="1.51"/><path d="M345,169L347,138L318,134Z" fill="#377eb2" stroke="#377eb2" stroke-width="1.51"/><path d="M345,169L318,134L309,177Z" fill="#317db4" stroke="#317db4" stroke-width="1.51"/><path d="M349,33L316,27L311,66Z" fill="#819baf" stroke="#819baf" stroke-width="1.51"/><path d="M99,104L92,134L137,138Z" fill="#76c8be" stroke="#76c8be" stroke-width="1.51"/><path d="M132,168L134,212L167,176Z" fill="#51acbf" stroke="#51acbf" stroke-width="1.51"/><path d="M96,173L134,212L132,168Z" fill="#5eb0be" stroke="#5eb0be" stroke-width="1.51"/><path d="M316,27L276,-5L277,33Z" fill="#8eadb4" stroke="#8eadb4" stroke-width="1.51"/><path d="M244,-44L202,-39L208,-9Z" fill="#a4cfc3" stroke="#a4cfc3" stroke-width="1.51"/><path d="M174,214L208,247L203,207Z" fill="#358eba" stroke="#358eba" stroke-width="1.51"/><path d="M174,245L208,247L174,214Z" fill="#398ab7" stroke="#398ab7" stroke-width="1.51"/><path d="M99,104L58,96L92,134Z" fill="#8ed0bb" stroke="#8ed0bb" stroke-width="1.51"/><path d="M95,32L98,64L129,64Z" fill="#a4dab8" stroke="#a4dab8" stroke-width="1.51"/><path d="M208,-9L174,-10L204,29Z" fill="#9ed2bc" stroke="#9ed2bc" stroke-width="1.51"/><path d="M208,247L241,248L238,211Z" fill="#2b7eb5" stroke="#2b7eb5" stroke-width="1.51"/><path d="M317,212L309,177L281,210Z" fill="#2375b3" stroke="#2375b3" stroke-width="1.51"/><path d="M352,204L345,169L309,177Z" fill="#2972b1" stroke="#2972b1" stroke-width="1.51"/><path d="M347,96L349,69L311,66Z" fill="#668faf" stroke="#668faf" stroke-width="1.51"/><path d="M382,99L349,69L347,96Z" fill="#5d84ac" stroke="#5d84ac" stroke-width="1.51"/><path d="M241,248L273,241L238,211Z" fill="#2379b5" stroke="#2379b5" stroke-width="1.51"/><path d="M311,248L317,212L281,210Z" fill="#2369ad" stroke="#2369ad" stroke-width="1.51"/><path d="M92,134L96,173L132,168Z" fill="#6ebdbe" stroke="#6ebdbe" stroke-width="1.51"/><path d="M134,212L174,245L174,214Z" fill="#4894b7" stroke="#4894b7" stroke-width="1.51"/><path d="M133,26L95,32L129,64Z" fill="#a6dbb7" stroke="#a6dbb7" stroke-width="1.51"/><path d="M174,-10L136,-3L168,26Z" fill="#a8d9ba" stroke="#a8d9ba" stroke-width="1.51"/><path d="M96,-5L95,32L133,26Z" fill="#b7e1b6" stroke="#b7e1b6" stroke-width="1.51"/><path d="M98,64L64,68L99,104Z" fill="#9dd8b9" stroke="#9dd8b9" stroke-width="1.51"/><path d="M349,69L349,33L311,66Z" fill="#7694ae" stroke="#7694ae" stroke-width="1.51"/><path d="M316,27L314,-7L276,-5Z" fill="#93aab1" stroke="#93aab1" stroke-width="1.51"/><path d="M344,-12L314,-7L316,27Z" fill="#93a1ae" stroke="#93a1ae" stroke-width="1.51"/><path d="M244,-44L208,-9L246,-5Z" fill="#a0c9be" stroke="#a0c9be" stroke-width="1.51"/><path d="M208,-9L202,-39L174,-10Z" fill="#a6d5bf" stroke="#a6d5bf" stroke-width="1.51"/><path d="M174,-10L174,-38L136,-3Z" fill="#afdcbc" stroke="#afdcbc" stroke-width="1.51"/><path d="M244,-44L246,-5L276,-5Z" fill="#9ec1bc" stroke="#9ec1bc" stroke-width="1.51"/><path d="M347,138L382,99L347,96Z" fill="#507fad" stroke="#507fad" stroke-width="1.51"/><path d="M349,69L385,67L349,33Z" fill="#778baa" stroke="#778baa" stroke-width="1.51"/><path d="M387,142L382,99L347,138Z" fill="#4677ad" stroke="#4677ad" stroke-width="1.51"/><path d="M317,212L352,204L309,177Z" fill="#256eb0" stroke="#256eb0" stroke-width="1.51"/><path d="M350,246L352,204L317,212Z" fill="#265da8" stroke="#265da8" stroke-width="1.51"/><path d="M134,212L136,249L174,245Z" fill="#5090b4" stroke="#5090b4" stroke-width="1.51"/><path d="M174,245L203,278L208,247Z" fill="#397eb2" stroke="#397eb2" stroke-width="1.51"/><path d="M208,247L241,282L241,248Z" fill="#2f73b0" stroke="#2f73b0" stroke-width="1.51"/><path d="M95,250L136,249L134,212Z" fill="#5d94b2" stroke="#5d94b2" stroke-width="1.51"/><path d="M202,-39L174,-38L174,-10Z" fill="#aad9c2" stroke="#aad9c2" stroke-width="1.51"/><path d="M136,-3L96,-5L133,26Z" fill="#b4e0b7" stroke="#b4e0b7" stroke-width="1.51"/><path d="M275,-49L244,-44L276,-5Z" fill="#9fbec0" stroke="#9fbec0" stroke-width="1.51"/><path d="M100,-46L128,-41L174,-38Z" fill="#bbe2c3" stroke="#bbe2c3" stroke-width="1.51"/><path d="M96,173L94,213L134,212Z" fill="#68abba" stroke="#68abba" stroke-width="1.51"/><path d="M63,207L94,213L96,173Z" fill="#78b1ba" stroke="#78b1ba" stroke-width="1.51"/><path d="M273,241L311,248L281,210Z" fill="#236aae" stroke="#236aae" stroke-width="1.51"/><path d="M275,277L311,248L273,241Z" fill="#2661a9" stroke="#2661a9" stroke-width="1.51"/><path d="M275,277L273,241L241,248Z" fill="#276aae" stroke="#276aae" stroke-width="1.51"/><path d="M387,142L347,138L383,172Z" fill="#3a70ac" stroke="#3a70ac" stroke-width="1.51"/><path d="M95,32L64,68L98,64Z" fill="#afdfb7" stroke="#afdfb7" stroke-width="1.51"/><path d="M92,134L57,140L96,173Z" fill="#81c6bd" stroke="#81c6bd" stroke-width="1.51"/><path d="M64,68L58,96L99,104Z" fill="#9ed7b9" stroke="#9ed7b9" stroke-width="1.51"/><path d="M172,281L203,278L174,245Z" fill="#3f7daf" stroke="#3f7daf" stroke-width="1.51"/><path d="M58,96L57,140L92,134Z" fill="#91d1bc" stroke="#91d1bc" stroke-width="1.51"/><path d="M383,172L347,138L345,169Z" fill="#3572ae" stroke="#3572ae" stroke-width="1.51"/><path d="M203,278L241,282L208,247Z" fill="#3573af" stroke="#3573af" stroke-width="1.51"/><path d="M349,33L344,-12L316,27Z" fill="#8d9bad" stroke="#8d9bad" stroke-width="1.51"/><path d="M382,99L385,67L349,69Z" fill="#6581aa" stroke="#6581aa" stroke-width="1.51"/><path d="M417,96L385,67L382,99Z" fill="#5979a0" stroke="#5979a0" stroke-width="1.51"/><path d="M241,282L275,277L241,248Z" fill="#2a69ad" stroke="#2a69ad" stroke-width="1.51"/><path d="M352,204L383,172L345,169Z" fill="#2d6aad" stroke="#2d6aad" stroke-width="1.51"/><path d="M387,214L383,172L352,204Z" fill="#2b5ea8" stroke="#2b5ea8" stroke-width="1.51"/><path d="M309,-48L275,-49L276,-5Z" fill="#9db5bc" stroke="#9db5bc" stroke-width="1.51"/><path d="M100,-46L174,-38L202,-39Z" fill="#b4dec5" stroke="#b4dec5" stroke-width="1.51"/><path d="M309,-48L276,-5L314,-7Z" fill="#9aadb5" stroke="#9aadb5" stroke-width="1.51"/><path d="M95,32L56,28L64,68Z" fill="#bfe5b5" stroke="#bfe5b5" stroke-width="1.51"/><path d="M128,-41L96,-5L136,-3Z" fill="#bde4b8" stroke="#bde4b8" stroke-width="1.51"/><path d="M203,278L201,316L241,282Z" fill="#366aa8" stroke="#366aa8" stroke-width="1.51"/><path d="M136,249L172,281L174,245Z" fill="#4b84b0" stroke="#4b84b0" stroke-width="1.51"/><path d="M135,282L172,281L136,249Z" fill="#5280ad" stroke="#5280ad" stroke-width="1.51"/><path d="M57,140L57,176L96,173Z" fill="#86c3bc" stroke="#86c3bc" stroke-width="1.51"/><path d="M385,-7L344,-12L349,33Z" fill="#9194a9" stroke="#9194a9" stroke-width="1.51"/><path d="M174,-38L128,-41L136,-3Z" fill="#b5dfbe" stroke="#b5dfbe" stroke-width="1.51"/><path d="M100,-46L202,-39L244,-44Z" fill="#acdac8" stroke="#acdac8" stroke-width="1.51"/><path d="M94,213L95,250L134,212Z" fill="#679db5" stroke="#679db5" stroke-width="1.51"/><path d="M57,176L63,207L96,173Z" fill="#80babc" stroke="#80babc" stroke-width="1.51"/><path d="M311,248L350,246L317,212Z" fill="#235aa6" stroke="#235aa6" stroke-width="1.51"/><path d="M311,282L350,246L311,248Z" fill="#2552a2" stroke="#2552a2" stroke-width="1.51"/><path d="M58,246L95,250L94,213Z" fill="#779cb1" stroke="#779cb1" stroke-width="1.51"/><path d="M344,-12L309,-48L314,-7Z" fill="#9aa4b2" stroke="#9aa4b2" stroke-width="1.51"/><path d="M65,-9L56,28L95,32Z" fill="#cae9b4" stroke="#cae9b4" stroke-width="1.51"/><path d="M27,64L24,104L58,96Z" fill="#addeb7" stroke="#addeb7" stroke-width="1.51"/><path d="M58,96L24,104L57,140Z" fill="#9fd7ba" stroke="#9fd7ba" stroke-width="1.51"/><path d="M57,140L20,174L57,176Z" fill="#91c7bc" stroke="#91c7bc" stroke-width="1.51"/><path d="M65,-9L95,32L96,-5Z" fill="#c7e8b5" stroke="#c7e8b5" stroke-width="1.51"/><path d="M385,67L388,31L349,33Z" fill="#8089a8" stroke="#8089a8" stroke-width="1.51"/><path d="M344,-12L345,-46L309,-48Z" fill="#9ba2b5" stroke="#9ba2b5" stroke-width="1.51"/><path d="M422,64L388,31L385,67Z" fill="#72819c" stroke="#72819c" stroke-width="1.51"/><path d="M172,281L201,316L203,278Z" fill="#3c70a9" stroke="#3c70a9" stroke-width="1.51"/><path d="M101,278L135,282L136,249Z" fill="#5d85ac" stroke="#5d85ac" stroke-width="1.51"/><path d="M275,277L311,282L311,248Z" fill="#2756a5" stroke="#2756a5" stroke-width="1.51"/><path d="M279,314L311,282L275,277Z" fill="#2752a0" stroke="#2752a0" stroke-width="1.51"/><path d="M419,141L417,96L387,142Z" fill="#3e6f9c" stroke="#3e6f9c" stroke-width="1.51"/><path d="M387,142L417,96L382,99Z" fill="#4b75a2" stroke="#4b75a2" stroke-width="1.51"/><path d="M350,246L387,214L352,204Z" fill="#2856a4" stroke="#2856a4" stroke-width="1.51"/><path d="M385,247L387,214L350,246Z" fill="#264b9f" stroke="#264b9f" stroke-width="1.51"/><path d="M419,141L387,142L383,172Z" fill="#346aa2" stroke="#346aa2" stroke-width="1.51"/><path d="M27,64L58,96L64,68Z" fill="#b1e0b6" stroke="#b1e0b6" stroke-width="1.51"/><path d="M57,176L20,207L63,207Z" fill="#8bb8b9" stroke="#8bb8b9" stroke-width="1.51"/><path d="M56,28L27,64L64,68Z" fill="#c1e6b5" stroke="#c1e6b5" stroke-width="1.51"/><path d="M65,-41L65,-9L96,-5Z" fill="#d4eeb7" stroke="#d4eeb7" stroke-width="1.51"/><path d="M426,171L419,141L383,172Z" fill="#2d649b" stroke="#2d649b" stroke-width="1.51"/><path d="M28,26L27,64L56,28Z" fill="#ceebb4" stroke="#ceebb4" stroke-width="1.51"/><path d="M275,-49L100,-46L244,-44Z" fill="#a8d3c9" stroke="#a8d3c9" stroke-width="1.51"/><path d="M128,-41L100,-46L96,-5Z" fill="#c6e7bd" stroke="#c6e7bd" stroke-width="1.51"/><path d="M-7,140L21,140L24,104Z" fill="#a4d7bb" stroke="#a4d7bb" stroke-width="1.51"/><path d="M24,104L21,140L57,140Z" fill="#9dd4bb" stroke="#9dd4bb" stroke-width="1.51"/><path d="M167,318L201,316L172,281Z" fill="#3d6fa0" stroke="#3d6fa0" stroke-width="1.51"/><path d="M241,282L279,314L275,277Z" fill="#295ba4" stroke="#295ba4" stroke-width="1.51"/><path d="M95,250L101,278L136,249Z" fill="#668cae" stroke="#668cae" stroke-width="1.51"/><path d="M135,282L167,318L172,281Z" fill="#4c76a6" stroke="#4c76a6" stroke-width="1.51"/><path d="M65,276L101,278L95,250Z" fill="#758dab" stroke="#758dab" stroke-width="1.51"/><path d="M58,246L94,213L63,207Z" fill="#7ea6b4" stroke="#7ea6b4" stroke-width="1.51"/><path d="M388,-44L345,-46L344,-12Z" fill="#9a98b1" stroke="#9a98b1" stroke-width="1.51"/><path d="M388,31L385,-7L349,33Z" fill="#8b8da7" stroke="#8b8da7" stroke-width="1.51"/><path d="M418,-9L385,-7L388,31Z" fill="#8a899c" stroke="#8a899c" stroke-width="1.51"/><path d="M458,66L422,64L417,96Z" fill="#58748c" stroke="#58748c" stroke-width="1.51"/><path d="M417,96L422,64L385,67Z" fill="#5f7999" stroke="#5f7999" stroke-width="1.51"/><path d="M245,322L279,314L241,282Z" fill="#255b9c" stroke="#255b9c" stroke-width="1.51"/><path d="M382,286L385,247L350,246Z" fill="#26419a" stroke="#26419a" stroke-width="1.51"/><path d="M201,316L245,322L241,282Z" fill="#2c629e" stroke="#2c629e" stroke-width="1.51"/><path d="M28,241L58,246L63,207Z" fill="#88a4b1" stroke="#88a4b1" stroke-width="1.51"/><path d="M21,140L20,174L57,140Z" fill="#97cdbc" stroke="#97cdbc" stroke-width="1.51"/><path d="M201,316L167,318L245,322Z" fill="#2f6697" stroke="#2f6697" stroke-width="1.51"/><path d="M128,314L167,318L135,282Z" fill="#4f759e" stroke="#4f759e" stroke-width="1.51"/><path d="M422,210L426,171L383,172Z" fill="#245c99" stroke="#245c99" stroke-width="1.51"/><path d="M348,286L350,246L311,282Z" fill="#26489e" stroke="#26489e" stroke-width="1.51"/><path d="M28,-4L56,28L65,-9Z" fill="#d8f0b3" stroke="#d8f0b3" stroke-width="1.51"/><path d="M28,-4L28,26L56,28Z" fill="#d7efb3" stroke="#d7efb3" stroke-width="1.51"/><path d="M-15,97L-7,140L24,104Z" fill="#afdcb9" stroke="#afdcb9" stroke-width="1.51"/><path d="M422,210L383,172L387,214Z" fill="#26589d" stroke="#26589d" stroke-width="1.51"/><path d="M419,141L457,104L417,96Z" fill="#406c8f" stroke="#406c8f" stroke-width="1.51"/><path d="M313,318L348,286L311,282Z" fill="#234497" stroke="#234497" stroke-width="1.51"/><path d="M96,318L128,314L101,278Z" fill="#627c9d" stroke="#627c9d" stroke-width="1.51"/><path d="M101,278L128,314L135,282Z" fill="#5e7da6" stroke="#5e7da6" stroke-width="1.51"/><path d="M100,-46L65,-41L96,-5Z" fill="#d1edbc" stroke="#d1edbc" stroke-width="1.51"/><path d="M20,174L20,207L57,176Z" fill="#91c0bb" stroke="#91c0bb" stroke-width="1.51"/><path d="M418,243L422,210L387,214Z" fill="#204a92" stroke="#204a92" stroke-width="1.51"/><path d="M418,243L387,214L385,247Z" fill="#214695" stroke="#214695" stroke-width="1.51"/><path d="M422,64L425,25L388,31Z" fill="#788195" stroke="#788195" stroke-width="1.51"/><path d="M385,-7L388,-44L344,-12Z" fill="#9892aa" stroke="#9892aa" stroke-width="1.51"/><path d="M458,30L425,25L422,64Z" fill="#717c8a" stroke="#717c8a" stroke-width="1.51"/><path d="M245,322L313,318L279,314Z" fill="#204e90" stroke="#204e90" stroke-width="1.51"/><path d="M279,314L313,318L311,282Z" fill="#214995" stroke="#214995" stroke-width="1.51"/><path d="M21,280L65,276L58,246Z" fill="#8893aa" stroke="#8893aa" stroke-width="1.51"/><path d="M58,246L65,276L95,250Z" fill="#7d95ad" stroke="#7d95ad" stroke-width="1.51"/><path d="M65,-41L28,-4L65,-9Z" fill="#def2b5" stroke="#def2b5" stroke-width="1.51"/><path d="M-9,68L24,104L27,64Z" fill="#bbe3b6" stroke="#bbe3b6" stroke-width="1.51"/><path d="M20,174L-8,207L20,207Z" fill="#98bdb9" stroke="#98bdb9" stroke-width="1.51"/><path d="M21,140L-7,140L20,174Z" fill="#9fd0bc" stroke="#9fd0bc" stroke-width="1.51"/><path d="M-9,68L27,64L-16,34Z" fill="#cfebb4" stroke="#cfebb4" stroke-width="1.51"/><path d="M345,-46L425,-48L309,-48Z" fill="#9c99b6" stroke="#9c99b6" stroke-width="1.51"/><path d="M418,-9L388,-44L385,-7Z" fill="#928b9f" stroke="#928b9f" stroke-width="1.51"/><path d="M20,207L28,241L63,207Z" fill="#8dadb4" stroke="#8dadb4" stroke-width="1.51"/><path d="M-11,244L28,241L20,207Z" fill="#95a9b1" stroke="#95a9b1" stroke-width="1.51"/><path d="M425,25L418,-9L388,31Z" fill="#828595" stroke="#828595" stroke-width="1.51"/><path d="M-16,34L27,64L28,26Z" fill="#d4edb3" stroke="#d4edb3" stroke-width="1.51"/><path d="M353,315L382,286L348,286Z" fill="#233790" stroke="#233790" stroke-width="1.51"/><path d="M348,286L382,286L350,246Z" fill="#264099" stroke="#264099" stroke-width="1.51"/><path d="M418,278L418,243L385,247Z" fill="#1f3b8b" stroke="#1f3b8b" stroke-width="1.51"/><path d="M455,171L426,171L458,207Z" fill="#1d568a" stroke="#1d568a" stroke-width="1.51"/><path d="M455,171L456,137L426,171Z" fill="#265d8c" stroke="#265d8c" stroke-width="1.51"/><path d="M426,171L456,137L419,141Z" fill="#2b628f" stroke="#2b628f" stroke-width="1.51"/><path d="M425,25L457,-10L418,-9Z" fill="#80818a" stroke="#80818a" stroke-width="1.51"/><path d="M456,137L457,104L419,141Z" fill="#35678c" stroke="#35678c" stroke-width="1.51"/><path d="M-9,68L-15,97L24,104Z" fill="#b8e2b6" stroke="#b8e2b6" stroke-width="1.51"/><path d="M128,314L96,318L167,318Z" fill="#507496" stroke="#507496" stroke-width="1.51"/><path d="M167,318L96,318L245,322Z" fill="#3d6d96" stroke="#3d6d96" stroke-width="1.51"/><path d="M65,276L96,318L101,278Z" fill="#7383a4" stroke="#7383a4" stroke-width="1.51"/><path d="M60,312L96,318L65,276Z" fill="#76839d" stroke="#76839d" stroke-width="1.51"/><path d="M313,318L353,315L348,286Z" fill="#203c8d" stroke="#203c8d" stroke-width="1.51"/><path d="M458,207L426,171L422,210Z" fill="#1b518b" stroke="#1b518b" stroke-width="1.51"/><path d="M456,137L458,207L457,104Z" fill="#2a618c" stroke="#2a618c" stroke-width="1.51"/><path d="M457,104L458,66L417,96Z" fill="#4c6f89" stroke="#4c6f89" stroke-width="1.51"/><path d="M-7,140L-16,169L20,174Z" fill="#a1cdbb" stroke="#a1cdbb" stroke-width="1.51"/><path d="M-45,132L-16,169L-7,140Z" fill="#a6d4c1" stroke="#a6d4c1" stroke-width="1.51"/><path d="M-16,169L-8,207L20,174Z" fill="#9dc4ba" stroke="#9dc4ba" stroke-width="1.51"/><path d="M21,280L60,312L65,276Z" fill="#868aa4" stroke="#868aa4" stroke-width="1.51"/><path d="M-15,97L-45,132L-7,140Z" fill="#aedbc0" stroke="#aedbc0" stroke-width="1.51"/><path d="M-46,96L-45,132L-15,97Z" fill="#b6dfc3" stroke="#b6dfc3" stroke-width="1.51"/><path d="M-15,-3L-16,34L28,26Z" fill="#e1f3b2" stroke="#e1f3b2" stroke-width="1.51"/><path d="M-15,-3L28,26L28,-4Z" fill="#e2f4b2" stroke="#e2f4b2" stroke-width="1.51"/><path d="M458,66L458,30L422,64Z" fill="#667787" stroke="#667787" stroke-width="1.51"/><path d="M418,-9L425,-48L388,-44Z" fill="#8f8a9d" stroke="#8f8a9d" stroke-width="1.51"/><path d="M65,-41L26,-48L28,-4Z" fill="#e4f5ba" stroke="#e4f5ba" stroke-width="1.51"/><path d="M100,-46L26,-48L65,-41Z" fill="#dff3c0" stroke="#dff3c0" stroke-width="1.51"/><path d="M275,-49L26,-48L100,-46Z" fill="#bde4c5" stroke="#bde4c5" stroke-width="1.51"/><path d="M454,240L458,207L422,210Z" fill="#184583" stroke="#184583" stroke-width="1.51"/><path d="M455,171L458,207L456,137Z" fill="#21598b" stroke="#21598b" stroke-width="1.51"/><path d="M457,104L462,278L458,66Z" fill="#2a618c" stroke="#2a618c" stroke-width="1.51"/><path d="M454,240L422,210L418,243Z" fill="#194185" stroke="#194185" stroke-width="1.51"/><path d="M21,280L58,246L28,241Z" fill="#8c9aac" stroke="#8c9aac" stroke-width="1.51"/><path d="M420,314L418,278L382,286Z" fill="#1c2d81" stroke="#1c2d81" stroke-width="1.51"/><path d="M382,286L418,278L385,247Z" fill="#22378e" stroke="#22378e" stroke-width="1.51"/><path d="M353,315L381,318L382,286Z" fill="#1f3088" stroke="#1f3088" stroke-width="1.51"/><path d="M313,318L381,318L353,315Z" fill="#1d3685" stroke="#1d3685" stroke-width="1.51"/><path d="M245,322L381,318L313,318Z" fill="#1c4189" stroke="#1c4189" stroke-width="1.51"/><path d="M-11,244L21,280L28,241Z" fill="#939dac" stroke="#939dac" stroke-width="1.51"/><path d="M453,-40L425,-48L418,-9Z" fill="#888591" stroke="#888591" stroke-width="1.51"/><path d="M388,-44L425,-48L345,-46Z" fill="#9890ae" stroke="#9890ae" stroke-width="1.51"/><path d="M309,-48L425,-48L275,-49Z" fill="#9da1ba" stroke="#9da1ba" stroke-width="1.51"/><path d="M-13,-42L-15,-3L28,-4Z" fill="#eef9b3" stroke="#eef9b3" stroke-width="1.51"/><path d="M418,278L454,240L418,243Z" fill="#193880" stroke="#193880" stroke-width="1.51"/><path d="M462,278L454,240L418,278Z" fill="#173179" stroke="#173179" stroke-width="1.51"/><path d="M-45,214L-11,244L-8,207Z" fill="#9cb0b8" stroke="#9cb0b8" stroke-width="1.51"/><path d="M-8,207L-11,244L20,207Z" fill="#99b0b3" stroke="#99b0b3" stroke-width="1.51"/><path d="M-16,169L-50,176L-8,207Z" fill="#a0c5c1" stroke="#a0c5c1" stroke-width="1.51"/><path d="M-46,96L-15,97L-45,68Z" fill="#bfe5c1" stroke="#bfe5c1" stroke-width="1.51"/><path d="M-15,97L-9,68L-45,68Z" fill="#c3e7bc" stroke="#c3e7bc" stroke-width="1.51"/><path d="M458,30L457,-10L425,25Z" fill="#797e87" stroke="#797e87" stroke-width="1.51"/><path d="M-45,68L-9,68L-16,34Z" fill="#d1edbb" stroke="#d1edbb" stroke-width="1.51"/><path d="M-47,29L-45,68L-16,34Z" fill="#dcf1be" stroke="#dcf1be" stroke-width="1.51"/><path d="M-45,132L-50,176L-16,169Z" fill="#a6d0c5" stroke="#a6d0c5" stroke-width="1.51"/><path d="M-46,96L-50,176L-45,132Z" fill="#acdaca" stroke="#acdaca" stroke-width="1.51"/><path d="M-47,29L-50,176L-46,96Z" fill="#bae2c6" stroke="#bae2c6" stroke-width="1.51"/><path d="M457,-10L453,-40L418,-9Z" fill="#848289" stroke="#848289" stroke-width="1.51"/><path d="M-45,68L-47,29L-46,96Z" fill="#cfecc2" stroke="#cfecc2" stroke-width="1.51"/><path d="M-15,-3L-47,29L-16,34Z" fill="#e5f5b9" stroke="#e5f5b9" stroke-width="1.51"/><path d="M-45,-5L-47,29L-15,-3Z" fill="#ebf7bc" stroke="#ebf7bc" stroke-width="1.51"/><path d="M26,-48L-13,-42L28,-4Z" fill="#ecf8b9" stroke="#ecf8b9" stroke-width="1.51"/><path d="M-8,316L23,315L21,280Z" fill="#8c8a9b" stroke="#8c8a9b" stroke-width="1.51"/><path d="M21,280L23,315L60,312Z" fill="#85879c" stroke="#85879c" stroke-width="1.51"/><path d="M60,312L23,315L96,318Z" fill="#798194" stroke="#798194" stroke-width="1.51"/><path d="M-15,281L21,280L-11,244Z" fill="#9898a9" stroke="#9898a9" stroke-width="1.51"/><path d="M381,318L420,314L382,286Z" fill="#1c2c7f" stroke="#1c2c7f" stroke-width="1.51"/><path d="M-50,176L-45,214L-8,207Z" fill="#9fbec2" stroke="#9fbec2" stroke-width="1.51"/><path d="M-46,245L-15,281L-11,244Z" fill="#9a9eb2" stroke="#9a9eb2" stroke-width="1.51"/><path d="M454,240L462,278L458,207Z" fill="#163a7e" stroke="#163a7e" stroke-width="1.51"/><path d="M458,207L462,278L457,104Z" fill="#1a5089" stroke="#1a5089" stroke-width="1.51"/><path d="M458,66L462,278L458,30Z" fill="#37688c" stroke="#37688c" stroke-width="1.51"/><path d="M455,312L462,278L418,278Z" fill="#162873" stroke="#162873" stroke-width="1.51"/><path d="M-13,-42L-45,-5L-15,-3Z" fill="#f2faba" stroke="#f2faba" stroke-width="1.51"/><path d="M-50,176L-46,245L-45,214Z" fill="#9fb7c3" stroke="#9fb7c3" stroke-width="1.51"/><path d="M-45,214L-46,245L-11,244Z" fill="#9caab9" stroke="#9caab9" stroke-width="1.51"/><path d="M-43,317L-8,316L-15,281Z" fill="#918ba0" stroke="#918ba0" stroke-width="1.51"/><path d="M-15,281L-8,316L21,280Z" fill="#948ea2" stroke="#948ea2" stroke-width="1.51"/><path d="M23,315L-8,316L96,318Z" fill="#7f8393" stroke="#7f8393" stroke-width="1.51"/><path d="M96,318L-43,317L245,322Z" fill="#627993" stroke="#627993" stroke-width="1.51"/><path d="M381,318L455,312L420,314Z" fill="#14266e" stroke="#14266e" stroke-width="1.51"/><path d="M420,314L455,312L418,278Z" fill="#142670" stroke="#142670" stroke-width="1.51"/><path d="M-13,-42L-47,-43L-45,-5Z" fill="#f6fcc3" stroke="#f6fcc3" stroke-width="1.51"/><path d="M-45,-5L-47,-43L-47,29Z" fill="#f2fabf" stroke="#f2fabf" stroke-width="1.51"/><path d="M-47,29L-47,-43L-50,176Z" fill="#d6efc2" stroke="#d6efc2" stroke-width="1.51"/><path d="M26,-48L-47,-43L-13,-42Z" fill="#f5fbc2" stroke="#f5fbc2" stroke-width="1.51"/><path d="M-46,245L-53,285L-15,281Z" fill="#9b99b3" stroke="#9b99b3" stroke-width="1.51"/><path d="M-50,176L-53,285L-46,245Z" fill="#9daabe" stroke="#9daabe" stroke-width="1.51"/><path d="M-47,-43L-53,285L-50,176Z" fill="#abd9cb" stroke="#abd9cb" stroke-width="1.51"/><path d="M-53,285L-43,317L-15,281Z" fill="#978fab" stroke="#978fab" stroke-width="1.51"/><path d="M-8,316L-43,317L96,318Z" fill="#858592" stroke="#858592" stroke-width="1.51"/></svg>